<svg xmlns="http://www.w3.org/2000/svg" width="32" height="48" viewBox="0 0 32 48" shape-rendering="crispEdges">
  <title>Maintenance Wrenchman - navy utility uniform, holding wrench</title>

  <!-- cap -->
  <rect x="12" y="5" width="8" height="1" fill="#17283f"/>
  <rect x="11" y="6" width="10" height="1" fill="#203a5f"/>
  <rect x="11" y="7" width="10" height="1" fill="#203a5f"/>
  <rect x="10" y="8" width="12" height="1" fill="#17283f"/>

  <!-- head -->
  <rect x="12" y="9" width="8" height="1" fill="#e2ad7b"/>
  <rect x="11" y="10" width="10" height="1" fill="#e2ad7b"/>
  <rect x="11" y="11" width="10" height="1" fill="#e2ad7b"/>
  <rect x="12" y="12" width="8" height="1" fill="#e2ad7b"/>
  <rect x="12" y="13" width="8" height="1" fill="#e2ad7b"/>
  <rect x="13" y="14" width="6" height="1" fill="#d49a67"/>

  <!-- eyes and beard shadow -->
  <rect x="14" y="11" width="1" height="1" fill="#1c1a1a"/>
  <rect x="17" y="11" width="1" height="1" fill="#1c1a1a"/>
  <rect x="14" y="13" width="4" height="1" fill="#6e5b4d"/>

  <!-- neck -->
  <rect x="14" y="15" width="4" height="1" fill="#d49a67"/>

  <!-- navy utility shirt -->
  <rect x="12" y="16" width="8" height="1" fill="#203a5f"/>
  <rect x="11" y="17" width="10" height="1" fill="#274a78"/>
  <rect x="11" y="18" width="10" height="1" fill="#274a78"/>
  <rect x="11" y="19" width="10" height="1" fill="#274a78"/>
  <rect x="11" y="20" width="10" height="1" fill="#203a5f"/>
  <rect x="11" y="21" width="10" height="1" fill="#17283f"/>

  <!-- zipper, pockets, name patch -->
  <rect x="16" y="16" width="1" height="6" fill="#142235"/>
  <rect x="12" y="18" width="3" height="2" fill="#31598c"/>
  <rect x="18" y="18" width="2" height="2" fill="#31598c"/>
  <rect x="18" y="17" width="2" height="1" fill="#d9b451"/>

  <!-- arms -->
  <rect x="10" y="17" width="1" height="3" fill="#274a78"/>
  <rect x="9" y="20" width="1" height="2" fill="#e2ad7b"/>
  <rect x="21" y="17" width="1" height="2" fill="#274a78"/>
  <rect x="22" y="18" width="1" height="2" fill="#e2ad7b"/>

  <!-- open-end wrench -->
  <rect x="23" y="19" width="1" height="6" fill="#8f9aa3"/>
  <rect x="24" y="18" width="1" height="1" fill="#b8c1c9"/>
  <rect x="24" y="24" width="1" height="1" fill="#b8c1c9"/>
  <rect x="25" y="17" width="1" height="2" fill="#8f9aa3"/>
  <rect x="25" y="23" width="1" height="2" fill="#8f9aa3"/>
  <rect x="26" y="18" width="1" height="1" fill="#b8c1c9"/>
  <rect x="26" y="24" width="1" height="1" fill="#b8c1c9"/>

  <!-- pants -->
  <rect x="13" y="22" width="3" height="5" fill="#1a3152"/>
  <rect x="16" y="22" width="3" height="5" fill="#1a3152"/>
  <rect x="13" y="24" width="3" height="1" fill="#203a5f"/>
  <rect x="16" y="24" width="3" height="1" fill="#203a5f"/>

  <!-- work boots and shadow -->
  <rect x="13" y="27" width="3" height="1" fill="#202020"/>
  <rect x="16" y="27" width="3" height="1" fill="#202020"/>
  <rect x="12" y="27" width="1" height="1" fill="#2f2f2f"/>
  <rect x="19" y="27" width="1" height="1" fill="#2f2f2f"/>
  <rect x="12" y="29" width="10" height="1" fill="#00000022"/>
</svg>
