<svg xmlns="http://www.w3.org/2000/svg" width="32" height="48" viewBox="0 0 32 48" shape-rendering="crispEdges">
  <title>Maintenance Guy - yellow hard hat, blue coveralls, holding wrench</title>

  <!-- hard hat dome -->
  <rect x="13" y="4" width="6" height="1" fill="#c9890a"/>
  <rect x="12" y="5" width="8" height="1" fill="#f5b800"/>
  <rect x="11" y="6" width="10" height="1" fill="#f5b800"/>
  <rect x="11" y="7" width="10" height="1" fill="#f5b800"/>
  <!-- hard hat brim (wider, darker for shadow) -->
  <rect x="10" y="8" width="12" height="1" fill="#c9890a"/>

  <!-- head skin -->
  <rect x="12" y="9" width="8" height="1" fill="#e8b888"/>
  <rect x="11" y="10" width="10" height="1" fill="#e8b888"/>
  <rect x="11" y="11" width="10" height="1" fill="#e8b888"/>
  <rect x="12" y="12" width="8" height="1" fill="#e8b888"/>
  <rect x="12" y="13" width="8" height="1" fill="#e8b888"/>
  <rect x="13" y="14" width="6" height="1" fill="#e8b888"/>

  <!-- eyes -->
  <rect x="14" y="11" width="1" height="1" fill="#1c1a1a"/>
  <rect x="17" y="11" width="1" height="1" fill="#1c1a1a"/>

  <!-- stubble / beard shadow -->
  <rect x="14" y="13" width="4" height="1" fill="#8a6f55"/>

  <!-- neck -->
  <rect x="14" y="15" width="4" height="1" fill="#d8a878"/>

  <!-- coveralls body (denim blue) -->
  <rect x="12" y="15" width="2" height="1" fill="#2f4d7a"/>
  <rect x="18" y="15" width="2" height="1" fill="#2f4d7a"/>
  <rect x="11" y="16" width="10" height="1" fill="#3b5b8a"/>
  <rect x="11" y="17" width="10" height="1" fill="#3b5b8a"/>
  <rect x="11" y="18" width="10" height="1" fill="#3b5b8a"/>
  <rect x="11" y="19" width="10" height="1" fill="#3b5b8a"/>
  <rect x="11" y="20" width="10" height="1" fill="#3b5b8a"/>

  <!-- coverall straps over chest (lighter blue) -->
  <rect x="13" y="16" width="1" height="3" fill="#5a7eb8"/>
  <rect x="18" y="16" width="1" height="3" fill="#5a7eb8"/>
  <!-- brassy strap buttons -->
  <rect x="13" y="18" width="1" height="1" fill="#d4a020"/>
  <rect x="18" y="18" width="1" height="1" fill="#d4a020"/>

  <!-- tool belt -->
  <rect x="11" y="21" width="10" height="1" fill="#5a3a20"/>
  <rect x="15" y="21" width="2" height="1" fill="#c0c0c0"/>

  <!-- left arm (hangs straight) -->
  <rect x="10" y="17" width="1" height="3" fill="#3b5b8a"/>
  <rect x="9" y="20" width="1" height="2" fill="#e8b888"/>

  <!-- right arm (raised, holds wrench) -->
  <rect x="21" y="17" width="1" height="2" fill="#3b5b8a"/>
  <rect x="22" y="18" width="1" height="2" fill="#e8b888"/>

  <!-- wrench (open-end style) -->
  <rect x="23" y="19" width="2" height="1" fill="#9aa3ad"/>
  <rect x="25" y="17" width="1" height="1" fill="#b8c0c8"/>
  <rect x="25" y="18" width="1" height="1" fill="#b8c0c8"/>
  <rect x="25" y="20" width="1" height="1" fill="#b8c0c8"/>
  <rect x="25" y="21" width="1" height="1" fill="#b8c0c8"/>
  <rect x="26" y="17" width="1" height="2" fill="#9aa3ad"/>
  <rect x="26" y="20" width="1" height="2" fill="#9aa3ad"/>

  <!-- pants/legs (darker work pants) -->
  <rect x="13" y="22" width="3" height="5" fill="#1f3b6a"/>
  <rect x="16" y="22" width="3" height="5" fill="#1f3b6a"/>
  <!-- knee highlight -->
  <rect x="13" y="24" width="3" height="1" fill="#2f4d7a"/>
  <rect x="16" y="24" width="3" height="1" fill="#2f4d7a"/>

  <!-- work boots -->
  <rect x="13" y="27" width="3" height="1" fill="#1c1a1a"/>
  <rect x="16" y="27" width="3" height="1" fill="#1c1a1a"/>
  <rect x="12" y="27" width="1" height="1" fill="#2b2b2b"/>
  <rect x="19" y="27" width="1" height="1" fill="#2b2b2b"/>

  <!-- ground shadow -->
  <rect x="12" y="29" width="10" height="1" fill="#00000022"/>
</svg>
