<svg xmlns="http://www.w3.org/2000/svg" width="96" height="48" viewBox="0 0 96 48" shape-rendering="crispEdges">
  <title>Chef walk (3 frames) — 32x48 each</title>
  <desc>Pixel-art SVG spritesheet. Transparent background. Frames at x=0..31, 32..63, 64..95.</desc>

  <!-- Palette -->
  <!-- skin:#f1c59a hair:#2a2320 outline:#1c1a1a coat:#ffffff apron:#efe7d6 pants:#56606d shoes:#2b2b2b hat:#ffffff hatShade:#e6e6e6 shadow:#00000022 -->

  <!-- FRAME 1 -->
  <g id="frame-1" transform="translate(0 0)">
    <!-- chef hat -->
    <rect x="13" y="4" width="6" height="1" fill="#e6e6e6"/>
    <rect x="12" y="5" width="8" height="1" fill="#ffffff"/>
    <rect x="11" y="6" width="10" height="1" fill="#ffffff"/>
    <rect x="11" y="7" width="10" height="1" fill="#ffffff"/>
    <rect x="12" y="8" width="8" height="1" fill="#ffffff"/>

    <!-- head -->
    <rect x="12" y="9" width="8" height="1" fill="#f1c59a"/>
    <rect x="11" y="10" width="10" height="1" fill="#f1c59a"/>
    <rect x="11" y="11" width="10" height="1" fill="#f1c59a"/>
    <rect x="12" y="12" width="8" height="1" fill="#f1c59a"/>
    <rect x="12" y="13" width="8" height="1" fill="#f1c59a"/>
    <rect x="13" y="14" width="6" height="1" fill="#f1c59a"/>
    <!-- eyes -->
    <rect x="14" y="11" width="1" height="1" fill="#1c1a1a"/>
    <rect x="17" y="11" width="1" height="1" fill="#1c1a1a"/>
    <!-- moustache -->
    <rect x="14" y="13" width="4" height="1" fill="#2a2320"/>

    <!-- body coat -->
    <rect x="12" y="15" width="8" height="1" fill="#1c1a1a"/>
    <rect x="12" y="16" width="8" height="1" fill="#ffffff"/>
    <rect x="11" y="17" width="10" height="1" fill="#ffffff"/>
    <rect x="11" y="18" width="10" height="1" fill="#ffffff"/>
    <rect x="12" y="19" width="8" height="1" fill="#efe7d6"/>
    <rect x="12" y="20" width="8" height="1" fill="#efe7d6"/>
    <rect x="12" y="21" width="8" height="1" fill="#efe7d6"/>
    <!-- coat buttons -->
    <rect x="15" y="17" width="1" height="1" fill="#e6e6e6"/>
    <rect x="16" y="18" width="1" height="1" fill="#e6e6e6"/>

    <!-- arms -->
    <rect x="10" y="17" width="1" height="3" fill="#ffffff"/>
    <rect x="9" y="20" width="1" height="2" fill="#f1c59a"/>
    <rect x="21" y="17" width="1" height="3" fill="#ffffff"/>
    <rect x="22" y="20" width="1" height="2" fill="#f1c59a"/>

    <!-- legs (walk pose) -->
    <rect x="13" y="22" width="3" height="1" fill="#56606d"/>
    <rect x="16" y="22" width="3" height="1" fill="#56606d"/>
    <rect x="13" y="23" width="3" height="4" fill="#56606d"/>
    <rect x="17" y="23" width="2" height="3" fill="#56606d"/>
    <rect x="13" y="27" width="3" height="1" fill="#2b2b2b"/>
    <rect x="17" y="26" width="3" height="1" fill="#2b2b2b"/>

    <rect x="12" y="29" width="10" height="1" fill="#00000022"/>
  </g>

  <!-- FRAME 2 -->
  <g id="frame-2" transform="translate(32 0)">
    <!-- chef hat -->
    <rect x="13" y="4" width="6" height="1" fill="#e6e6e6"/>
    <rect x="12" y="5" width="8" height="1" fill="#ffffff"/>
    <rect x="11" y="6" width="10" height="1" fill="#ffffff"/>
    <rect x="11" y="7" width="10" height="1" fill="#ffffff"/>
    <rect x="12" y="8" width="8" height="1" fill="#ffffff"/>
    <!-- head -->
    <rect x="12" y="9" width="8" height="1" fill="#f1c59a"/>
    <rect x="11" y="10" width="10" height="1" fill="#f1c59a"/>
    <rect x="11" y="11" width="10" height="1" fill="#f1c59a"/>
    <rect x="12" y="12" width="8" height="1" fill="#f1c59a"/>
    <rect x="12" y="13" width="8" height="1" fill="#f1c59a"/>
    <rect x="13" y="14" width="6" height="1" fill="#f1c59a"/>
    <rect x="14" y="11" width="1" height="1" fill="#1c1a1a"/>
    <rect x="17" y="11" width="1" height="1" fill="#1c1a1a"/>
    <rect x="14" y="13" width="4" height="1" fill="#2a2320"/>

    <!-- body coat -->
    <rect x="12" y="15" width="8" height="1" fill="#1c1a1a"/>
    <rect x="12" y="16" width="8" height="1" fill="#ffffff"/>
    <rect x="11" y="17" width="10" height="1" fill="#ffffff"/>
    <rect x="11" y="18" width="10" height="1" fill="#ffffff"/>
    <rect x="12" y="19" width="8" height="1" fill="#efe7d6"/>
    <rect x="12" y="20" width="8" height="1" fill="#efe7d6"/>
    <rect x="12" y="21" width="8" height="1" fill="#efe7d6"/>
    <rect x="15" y="17" width="1" height="1" fill="#e6e6e6"/>
    <rect x="16" y="18" width="1" height="1" fill="#e6e6e6"/>

    <!-- arms -->
    <rect x="10" y="17" width="1" height="2" fill="#ffffff"/>
    <rect x="9" y="19" width="1" height="3" fill="#f1c59a"/>
    <rect x="21" y="17" width="1" height="2" fill="#ffffff"/>
    <rect x="22" y="19" width="1" height="3" fill="#f1c59a"/>

    <!-- legs (neutral) -->
    <rect x="13" y="22" width="3" height="1" fill="#56606d"/>
    <rect x="16" y="22" width="3" height="1" fill="#56606d"/>
    <rect x="13" y="23" width="3" height="4" fill="#56606d"/>
    <rect x="16" y="23" width="3" height="4" fill="#56606d"/>
    <rect x="13" y="27" width="3" height="1" fill="#2b2b2b"/>
    <rect x="16" y="27" width="3" height="1" fill="#2b2b2b"/>

    <rect x="12" y="29" width="10" height="1" fill="#00000022"/>
  </g>

  <!-- FRAME 3 -->
  <g id="frame-3" transform="translate(64 0)">
    <!-- chef hat -->
    <rect x="13" y="4" width="6" height="1" fill="#e6e6e6"/>
    <rect x="12" y="5" width="8" height="1" fill="#ffffff"/>
    <rect x="11" y="6" width="10" height="1" fill="#ffffff"/>
    <rect x="11" y="7" width="10" height="1" fill="#ffffff"/>
    <rect x="12" y="8" width="8" height="1" fill="#ffffff"/>
    <!-- head -->
    <rect x="12" y="9" width="8" height="1" fill="#f1c59a"/>
    <rect x="11" y="10" width="10" height="1" fill="#f1c59a"/>
    <rect x="11" y="11" width="10" height="1" fill="#f1c59a"/>
    <rect x="12" y="12" width="8" height="1" fill="#f1c59a"/>
    <rect x="12" y="13" width="8" height="1" fill="#f1c59a"/>
    <rect x="13" y="14" width="6" height="1" fill="#f1c59a"/>
    <rect x="14" y="11" width="1" height="1" fill="#1c1a1a"/>
    <rect x="17" y="11" width="1" height="1" fill="#1c1a1a"/>
    <rect x="14" y="13" width="4" height="1" fill="#2a2320"/>

    <!-- body coat -->
    <rect x="12" y="15" width="8" height="1" fill="#1c1a1a"/>
    <rect x="12" y="16" width="8" height="1" fill="#ffffff"/>
    <rect x="11" y="17" width="10" height="1" fill="#ffffff"/>
    <rect x="11" y="18" width="10" height="1" fill="#ffffff"/>
    <rect x="12" y="19" width="8" height="1" fill="#efe7d6"/>
    <rect x="12" y="20" width="8" height="1" fill="#efe7d6"/>
    <rect x="12" y="21" width="8" height="1" fill="#efe7d6"/>
    <rect x="15" y="17" width="1" height="1" fill="#e6e6e6"/>
    <rect x="16" y="18" width="1" height="1" fill="#e6e6e6"/>

    <!-- arms -->
    <rect x="10" y="17" width="1" height="3" fill="#ffffff"/>
    <rect x="9" y="20" width="1" height="2" fill="#f1c59a"/>
    <rect x="21" y="17" width="1" height="3" fill="#ffffff"/>
    <rect x="22" y="20" width="1" height="2" fill="#f1c59a"/>

    <!-- legs (opposite walk pose) -->
    <rect x="13" y="22" width="3" height="1" fill="#56606d"/>
    <rect x="16" y="22" width="3" height="1" fill="#56606d"/>
    <rect x="14" y="23" width="2" height="3" fill="#56606d"/>
    <rect x="16" y="23" width="3" height="4" fill="#56606d"/>
    <rect x="12" y="26" width="3" height="1" fill="#2b2b2b"/>
    <rect x="16" y="27" width="3" height="1" fill="#2b2b2b"/>

    <rect x="12" y="29" width="10" height="1" fill="#00000022"/>
  </g>
</svg>
