<svg xmlns="http://www.w3.org/2000/svg" viewBox="0 0 100 100">
  <rect width="100" height="100" fill="#0b0d10"/>
  <g fill="#1c2128" stroke="#e7ecf2" stroke-width="1.4" stroke-linejoin="round">
    <polygon points="6,52 26,18 46,8 66,16 84,30 94,54 78,78 56,90 30,86 14,72"/>
  </g>
  <g fill="none" stroke="#e7ecf2" stroke-width="1.4" stroke-linejoin="round">
    <polyline points="6,52 26,40 26,18"/>
    <polyline points="26,40 46,30 46,8"/>
    <polyline points="46,30 66,30 66,16"/>
    <polyline points="66,30 84,42 84,30"/>
    <polyline points="46,30 56,52 78,50 84,42"/>
    <polyline points="56,52 56,72 30,86"/>
    <polyline points="56,72 78,78"/>
  </g>
  <circle cx="74" cy="38" r="3.6" fill="#0099ff"/>
</svg>
