<svg xmlns="http://www.w3.org/2000/svg" width="32" height="48" viewBox="0 0 32 48" shape-rendering="crispEdges">
  <title>Italian Chef (Female) — regular chef hat, red neckerchief</title>
  <!-- chef hat -->
  <rect x="13" y="4" width="6" height="1" fill="#e6e6e6"/>
  <rect x="12" y="5" width="8" height="1" fill="#ffffff"/>
  <rect x="11" y="6" width="10" height="1" fill="#ffffff"/>
  <rect x="11" y="7" width="10" height="1" fill="#ffffff"/>
  <rect x="12" y="8" width="8" height="1" fill="#e6e6e6"/>
  <!-- hair peeking (dark brown) -->
  <rect x="11" y="8" width="1" height="3" fill="#2a2320"/>
  <rect x="20" y="8" width="1" height="3" fill="#2a2320"/>
  <!-- head -->
  <rect x="12" y="9" width="8" height="1" fill="#e8b888"/>
  <rect x="11" y="10" width="10" height="1" fill="#e8b888"/>
  <rect x="11" y="11" width="10" height="1" fill="#e8b888"/>
  <rect x="12" y="12" width="8" height="1" fill="#e8b888"/>
  <rect x="12" y="13" width="8" height="1" fill="#e8b888"/>
  <rect x="13" y="14" width="6" height="1" fill="#e8b888"/>
  <!-- eyes -->
  <rect x="14" y="11" width="1" height="1" fill="#1c1a1a"/>
  <rect x="17" y="11" width="1" height="1" fill="#1c1a1a"/>
  <!-- smile -->
  <rect x="15" y="13" width="2" height="1" fill="#c9976e"/>
  <!-- red neckerchief -->
  <rect x="13" y="15" width="6" height="1" fill="#c0392b"/>
  <rect x="15" y="16" width="2" height="1" fill="#c0392b"/>
  <!-- body coat -->
  <rect x="12" y="16" width="3" height="1" fill="#ffffff"/>
  <rect x="17" y="16" width="3" height="1" fill="#ffffff"/>
  <rect x="11" y="17" width="10" height="1" fill="#ffffff"/>
  <rect x="11" y="18" width="10" height="1" fill="#ffffff"/>
  <rect x="12" y="19" width="8" height="1" fill="#efe7d6"/>
  <rect x="12" y="20" width="8" height="1" fill="#efe7d6"/>
  <rect x="12" y="21" width="8" height="1" fill="#efe7d6"/>
  <rect x="16" y="17" width="1" height="1" fill="#e6e6e6"/>
  <!-- arms -->
  <rect x="10" y="17" width="1" height="3" fill="#ffffff"/>
  <rect x="9" y="20" width="1" height="2" fill="#e8b888"/>
  <rect x="21" y="17" width="1" height="3" fill="#ffffff"/>
  <rect x="22" y="20" width="1" height="2" fill="#e8b888"/>
  <!-- legs -->
  <rect x="13" y="22" width="3" height="5" fill="#56606d"/>
  <rect x="16" y="22" width="3" height="5" fill="#56606d"/>
  <rect x="13" y="27" width="3" height="1" fill="#2b2b2b"/>
  <rect x="16" y="27" width="3" height="1" fill="#2b2b2b"/>
  <rect x="12" y="29" width="10" height="1" fill="#00000022"/>
</svg>
