<svg xmlns="http://www.w3.org/2000/svg" width="32" height="48" viewBox="0 0 32 48" shape-rendering="crispEdges">
  <title>Japanese Chef (Male) — hachimaki headband</title>
  <!-- hair -->
  <rect x="12" y="5" width="8" height="1" fill="#1c1a1a"/>
  <rect x="11" y="6" width="10" height="1" fill="#1c1a1a"/>
  <rect x="11" y="7" width="10" height="1" fill="#1c1a1a"/>
  <!-- hachimaki headband -->
  <rect x="10" y="8" width="12" height="1" fill="#ffffff"/>
  <rect x="20" y="7" width="2" height="1" fill="#ffffff"/>
  <rect x="21" y="6" width="1" height="1" fill="#ffffff"/>
  <!-- red circle -->
  <rect x="15" y="8" width="2" height="1" fill="#c0392b"/>
  <!-- head -->
  <rect x="12" y="9" width="8" height="1" fill="#f5d5a8"/>
  <rect x="11" y="10" width="10" height="1" fill="#f5d5a8"/>
  <rect x="11" y="11" width="10" height="1" fill="#f5d5a8"/>
  <rect x="12" y="12" width="8" height="1" fill="#f5d5a8"/>
  <rect x="12" y="13" width="8" height="1" fill="#f5d5a8"/>
  <rect x="13" y="14" width="6" height="1" fill="#f5d5a8"/>
  <!-- eyes -->
  <rect x="14" y="11" width="1" height="1" fill="#1c1a1a"/>
  <rect x="17" y="11" width="1" height="1" fill="#1c1a1a"/>
  <!-- mouth -->
  <rect x="15" y="13" width="2" height="1" fill="#d4976a"/>
  <!-- neck -->
  <rect x="14" y="15" width="4" height="1" fill="#1c1a1a"/>
  <!-- dark chef jacket -->
  <rect x="12" y="16" width="8" height="1" fill="#2c3e50"/>
  <rect x="11" y="17" width="10" height="1" fill="#2c3e50"/>
  <rect x="11" y="18" width="10" height="1" fill="#2c3e50"/>
  <rect x="12" y="19" width="8" height="1" fill="#2c3e50"/>
  <rect x="12" y="20" width="8" height="1" fill="#34495e"/>
  <rect x="12" y="21" width="8" height="1" fill="#34495e"/>
  <!-- jacket closure -->
  <rect x="16" y="17" width="1" height="3" fill="#1c1a1a"/>
  <!-- arms -->
  <rect x="10" y="17" width="1" height="3" fill="#2c3e50"/>
  <rect x="9" y="20" width="1" height="2" fill="#f5d5a8"/>
  <rect x="21" y="17" width="1" height="3" fill="#2c3e50"/>
  <rect x="22" y="20" width="1" height="2" fill="#f5d5a8"/>
  <!-- legs -->
  <rect x="13" y="22" width="3" height="5" fill="#1c1a1a"/>
  <rect x="16" y="22" width="3" height="5" fill="#1c1a1a"/>
  <rect x="13" y="27" width="3" height="1" fill="#2b2b2b"/>
  <rect x="16" y="27" width="3" height="1" fill="#2b2b2b"/>
  <rect x="12" y="29" width="10" height="1" fill="#00000022"/>
</svg>
