<svg xmlns="http://www.w3.org/2000/svg" width="32" height="32" viewBox="0 0 32 32" shape-rendering="crispEdges">
  <title>Email (icon)</title>
  <desc>Pixel-art SVG icon. Transparent background. 32x32.</desc>

  <!-- outline -->
  <rect x="6" y="10" width="20" height="1" fill="#1c1a1a"/>
  <rect x="6" y="11" width="1" height="12" fill="#1c1a1a"/>
  <rect x="25" y="11" width="1" height="12" fill="#1c1a1a"/>
  <rect x="6" y="23" width="20" height="1" fill="#1c1a1a"/>

  <!-- envelope body -->
  <rect x="7" y="11" width="18" height="12" fill="#F0E6D8"/>

  <!-- flap shadow -->
  <rect x="7" y="11" width="18" height="1" fill="#E8D5BE"/>

  <!-- flap V outline -->
  <rect x="7" y="11" width="1" height="1" fill="#1c1a1a"/>
  <rect x="8" y="12" width="1" height="1" fill="#1c1a1a"/>
  <rect x="9" y="13" width="1" height="1" fill="#1c1a1a"/>
  <rect x="10" y="14" width="1" height="1" fill="#1c1a1a"/>
  <rect x="11" y="15" width="1" height="1" fill="#1c1a1a"/>
  <rect x="12" y="16" width="1" height="1" fill="#1c1a1a"/>
  <rect x="13" y="17" width="1" height="1" fill="#1c1a1a"/>
  <rect x="14" y="18" width="1" height="1" fill="#1c1a1a"/>
  <rect x="15" y="19" width="2" height="1" fill="#1c1a1a"/>
  <rect x="17" y="18" width="1" height="1" fill="#1c1a1a"/>
  <rect x="18" y="17" width="1" height="1" fill="#1c1a1a"/>
  <rect x="19" y="16" width="1" height="1" fill="#1c1a1a"/>
  <rect x="20" y="15" width="1" height="1" fill="#1c1a1a"/>
  <rect x="21" y="14" width="1" height="1" fill="#1c1a1a"/>
  <rect x="22" y="13" width="1" height="1" fill="#1c1a1a"/>
  <rect x="23" y="12" width="1" height="1" fill="#1c1a1a"/>
  <rect x="24" y="11" width="1" height="1" fill="#1c1a1a"/>

  <!-- flap fill (caramel tint) -->
  <rect x="8" y="11" width="1" height="1" fill="#C4873B"/>
  <rect x="9" y="11" width="1" height="2" fill="#C4873B"/>
  <rect x="10" y="11" width="1" height="3" fill="#C4873B"/>
  <rect x="11" y="11" width="1" height="4" fill="#C4873B"/>
  <rect x="12" y="11" width="1" height="5" fill="#C4873B"/>
  <rect x="13" y="11" width="1" height="6" fill="#C4873B"/>
  <rect x="14" y="11" width="1" height="7" fill="#C4873B"/>
  <rect x="15" y="11" width="2" height="8" fill="#E8A849"/>
  <rect x="17" y="11" width="1" height="7" fill="#C4873B"/>
  <rect x="18" y="11" width="1" height="6" fill="#C4873B"/>
  <rect x="19" y="11" width="1" height="5" fill="#C4873B"/>
  <rect x="20" y="11" width="1" height="4" fill="#C4873B"/>
  <rect x="21" y="11" width="1" height="3" fill="#C4873B"/>
  <rect x="22" y="11" width="1" height="2" fill="#C4873B"/>
  <rect x="23" y="11" width="1" height="1" fill="#C4873B"/>

  <!-- highlight on flap -->
  <rect x="10" y="12" width="1" height="1" fill="#F5C96A"/>
  <rect x="11" y="13" width="1" height="1" fill="#F5C96A"/>
  <rect x="12" y="14" width="1" height="1" fill="#F5C96A"/>

  <!-- shadow -->
  <rect x="7" y="24" width="18" height="1" fill="#00000022"/>
</svg>
